<svg xmlns="http://www.w3.org/2000/svg" width="166" height="166" viewBox="0 0 166 166">
  <g id="Group_7" data-name="Group 7" transform="translate(-434 -1896)">
    <g id="Group_5" data-name="Group 5" transform="translate(434 1896)">
      <circle id="Ellipse_4" data-name="Ellipse 4" cx="83" cy="83" r="83" fill="#f5f7ff"/>
      <g id="Group_4" data-name="Group 4" transform="translate(27.934 28)">
        <path id="Path_1" data-name="Path 1" d="M133.3,62.5l26.825-26.825a8.108,8.108,0,0,0,0-11.466L145.793,9.875a8.109,8.109,0,0,0-11.467,0L107.5,36.7,80.676,9.876a8.108,8.108,0,0,0-11.467,0L54.876,24.209a8.108,8.108,0,0,0,0,11.466L81.7,62.5,54.876,89.326a8.108,8.108,0,0,0,0,11.466l14.333,14.333a8.109,8.109,0,0,0,11.467,0L107.5,88.3l26.825,26.825a8.108,8.108,0,0,0,11.467,0l14.333-14.333a8.108,8.108,0,0,0,0-11.466Z" transform="translate(-52.501 -7.501)" fill="#e0e8ff"/>
        <path id="Path_2" data-name="Path 2" d="M256.182,107.612l32.559-32.559-5.733-5.733H274.9l-38.292,38.292L274.9,145.9h8.108l5.733-5.733Z" transform="translate(-186.848 -52.612)" fill="#585c75"/>
        <path id="Path_3" data-name="Path 3" d="M170.552,46.1l-8.6-8.6L129.393,70.059,96.834,37.5,82.5,51.833,115.06,84.392,82.5,116.951l14.325,14.333c.008,0,32.567-32.558,32.567-32.558l32.559,32.558,8.6-8.6L135.126,87.259a4.054,4.054,0,0,1,0-5.733Z" transform="translate(-74.393 -29.392)" fill="#757fa4"/>
        <path id="Path_14" data-name="Path 14" d="M75.6,110.044a2.027,2.027,0,0,0,0,2.866L89.92,127.243a2.027,2.027,0,0,0,1.232.584q.123.012.235.012a2.4,2.4,0,0,0,1.765-.96l30.768-30.761,31.125,31.125a2.027,2.027,0,0,0,2.867,0l14.333-14.333a2.027,2.027,0,0,0,0-2.867L141.12,78.919l31.126-31.125a2.027,2.027,0,0,0,0-2.866L157.913,30.594a2.028,2.028,0,0,0-2.867,0L123.92,61.719,92.8,30.594a2.027,2.027,0,0,0-2.867,0L75.6,44.927a2.027,2.027,0,0,0,0,2.866l31.126,31.126ZM79.9,46.36,91.362,34.894l31.125,31.125a2.027,2.027,0,0,0,2.867,0l31.125-31.125L167.946,46.36,136.82,77.486a2.027,2.027,0,0,0,0,2.866l31.126,31.125-11.467,11.467L125.354,91.819a2.027,2.027,0,0,0-2.867,0c-.282.282-24.9,24.9-31.131,31.126L79.895,111.478l31.126-31.126a2.027,2.027,0,0,0,0-2.866Z" transform="translate(-68.92 -23.919)" fill="#475475"/>
      </g>
    </g>
    <g id="Group_6" data-name="Group 6" transform="translate(442 1904)">
      <path id="Path_17" data-name="Path 17" d="M75.185,153.206A75.158,75.158,0,0,1,61.435,4.153,2.936,2.936,0,1,1,62.5,9.927a69.311,69.311,0,1,0,25.365,0,2.936,2.936,0,1,1,1.068-5.773,75.159,75.159,0,0,1-13.75,149.053Z" transform="translate(0 -2.802)" fill="#475475"/>
      <circle id="Ellipse_3" data-name="Ellipse 3" cx="3.22" cy="3.22" r="3.22" transform="translate(71.965)" fill="#475475"/>
    </g>
  </g>
</svg>
