<svg xmlns="http://www.w3.org/2000/svg" width="166" height="166.001" viewBox="0 0 166 166.001">
  <g id="Group_8" data-name="Group 8" transform="translate(-746.911 -1899.817)">
    <ellipse id="Ellipse_5" data-name="Ellipse 5" cx="83" cy="83.001" rx="83" ry="83.001" transform="translate(746.911 1899.817)" fill="#f5f7ff"/>
    <ellipse id="Ellipse_1" data-name="Ellipse 1" cx="69" cy="69.001" rx="69" ry="69.001" transform="translate(760.911 1913.817)" fill="#e0e8ff"/>
    <ellipse id="Ellipse_2" data-name="Ellipse 2" cx="53.543" cy="53.544" rx="53.543" ry="53.544" transform="translate(776.368 1929.273)" fill="#757fa4"/>
    <path id="Path_15" data-name="Path 15" d="M151.127,217.423,133.61,201.718a7.457,7.457,0,0,1-.066-11.277,9.456,9.456,0,0,1,12.445-.06l14.449,12.955L201.308,166.3a9.456,9.456,0,0,1,12.445,0,7.457,7.457,0,0,1,0,11.277l-43.923,39.8a14.253,14.253,0,0,1-18.7.045Z" transform="translate(656.246 1790.387)" fill="#e0e8ff"/>
    <path id="Path_16" data-name="Path 16" d="M153.638,217.086a17.294,17.294,0,0,1-11.645-4.369h0L124.6,197.012a10.4,10.4,0,0,1-.091-15.651,12.647,12.647,0,0,1,8.557-3.283h.066a12.66,12.66,0,0,1,8.528,3.2l11.951,10.791,38.2-34.862a12.965,12.965,0,0,1,17.152,0,10.4,10.4,0,0,1,0,15.652l-43.618,39.8a17.286,17.286,0,0,1-11.665,4.426Zm-20.508-32.823H133.1a5.578,5.578,0,0,0-3.774,1.448,4.586,4.586,0,0,0,.04,6.9l17.394,15.705h0a10.214,10.214,0,0,0,6.877,2.58h.027a10.21,10.21,0,0,0,6.889-2.614l43.618-39.8a4.585,4.585,0,0,0,0-6.9,5.719,5.719,0,0,0-7.565,0l-40.587,37.038a3.623,3.623,0,0,1-4.781.011l-14.348-12.955A5.586,5.586,0,0,0,133.129,184.263Z" transform="translate(663.152 1797.293)" fill="#585c75"/>
    <path id="Path_17" data-name="Path 17" d="M72.188,147.212A72.135,72.135,0,0,1,58.986,4.151a2.818,2.818,0,1,1,1.025,5.541,66.549,66.549,0,1,0,24.354,0A2.818,2.818,0,1,1,85.39,4.151a72.136,72.136,0,0,1-13.2,143.061Z" transform="translate(757.723 1907.794)" fill="#475475"/>
    <circle id="Ellipse_3" data-name="Ellipse 3" cx="3.22" cy="3.22" r="3.22" transform="translate(826.691 1910.597)" fill="#475475"/>
    <path id="Path_18" data-name="Path 18" d="M106.723,163.447a56.724,56.724,0,1,1,56.723-56.724A56.787,56.787,0,0,1,106.723,163.447Zm0-107.94a51.216,51.216,0,1,0,51.216,51.216A51.274,51.274,0,0,0,106.723,55.507Z" transform="translate(723.188 1876.094)" fill="#475475"/>
  </g>
</svg>
